<svg width="123" height="37" viewBox="0 0 123 37" fill="none" xmlns="http://www.w3.org/2000/svg">
<path d="M7.42819 15.1315H6.58266V35.6548H0.288169V7.64234C0.0532999 2.43351 2.84824 0.369179 7.49865 0.369179C8.57904 0.369179 9.56549 0.417186 10.5285 0.585213V6.25012H8.88437C7.42819 6.25012 6.62963 6.92223 6.48871 8.26644V10.0667H10.5519V11.675C10.5285 13.5233 9.11924 15.1315 7.42819 15.1315Z" fill="black"/>
<path d="M20.1111 15.4916H13.8401C14.5917 10.4268 17.8564 7.95439 23.6107 7.95439C30.4923 7.95439 33.9919 10.4268 34.1328 15.4916V24.7811C34.1328 32.3183 29.9756 35.6788 23.2349 36.1829C17.2457 36.687 13.0885 33.6625 13.0885 27.6135C13.2294 21.0605 17.5745 19.3082 23.8925 18.6361C26.5935 18.276 27.9557 17.3879 27.9557 15.8997C27.8148 14.3634 26.4996 13.5713 23.8925 13.5713C21.6847 13.5713 20.4399 14.1954 20.1111 15.4916ZM28.0497 24.469V21.9486C26.5935 22.6207 24.879 23.1968 23.047 23.6049C20.5339 24.109 19.2656 25.4052 19.2656 27.4215C19.4065 29.5819 20.4399 30.614 22.4363 30.614C25.9359 30.59 28.0497 28.3337 28.0497 24.469Z" fill="black"/>
<path d="M48.0605 30.71C50.7146 30.71 52.0298 29.8939 52.0298 28.1416C52.0298 26.7494 49.869 25.6212 45.5709 24.7811C40.0515 23.7009 37.2096 21.0125 37.1626 16.7398C37.1626 10.8589 41.4137 8.07441 47.1211 7.9784C50.3388 7.9784 52.8754 8.74652 54.7778 10.3068C56.6098 11.915 57.6197 14.1234 57.7606 16.9558H53.7913C52.3352 16.9078 51.3957 16.3317 50.9964 15.2516C50.5736 14.0754 49.3053 13.4033 47.215 13.4033C44.7489 13.4033 43.5276 14.1234 43.5276 15.5156C43.5276 16.9078 45.1247 17.988 48.3894 18.6601C52.6405 19.5963 55.4119 20.7724 56.7977 22.1647C57.972 23.5089 58.5357 25.1651 58.5357 27.0134C58.5357 33.7105 53.7209 36.2069 47.1211 36.2069C43.6215 36.2069 40.991 35.3908 39.2764 33.7825C37.3975 32.2463 36.4345 29.8699 36.4345 26.7254H42.8464C43.0108 29.6779 45.0072 30.71 48.0605 30.71Z" fill="black"/>
<path d="M72.8862 14.0994C69.1518 14.0994 67.5547 17.5079 67.5547 21.6846V35.6548H61.2837V0.585213H64.4544C66.5212 0.585213 67.5782 1.7614 67.5782 4.04177V12.2031C70.7959 8.17043 74.6947 7.04225 79.3686 8.84253C82.8681 10.2348 84.5122 13.9073 84.3243 19.8363V35.6788H78.1003V21.7086C78.0768 17.0759 76.4797 14.0994 72.8862 14.0994Z" fill="black"/>
<path d="M87.5185 4.32981C87.5185 1.85742 88.5989 0.561211 90.8302 0.561211H94.0948V35.6548H87.542V4.32981H87.5185Z" fill="#95017B"/>
<path d="M100.648 0.585213H122.89V6.82621H113.401V35.6548H106.848V6.82621H97.3595V4.32981C97.336 2.33749 98.8157 0.585213 100.648 0.585213Z" fill="#95017B"/>
</svg>
