<svg width="24" height="26" viewBox="0 0 24 26" fill="none" xmlns="http://www.w3.org/2000/svg">
<path d="M12.0054 6.71094C8.59821 6.71094 5.85 9.51641 5.85 12.9945C5.85 16.4727 8.59821 19.2781 12.0054 19.2781C15.4125 19.2781 18.1607 16.4727 18.1607 12.9945C18.1607 9.51641 15.4125 6.71094 12.0054 6.71094ZM12.0054 17.0797C9.80357 17.0797 8.00357 15.2477 8.00357 12.9945C8.00357 10.7414 9.79821 8.90938 12.0054 8.90938C14.2125 8.90938 16.0071 10.7414 16.0071 12.9945C16.0071 15.2477 14.2071 17.0797 12.0054 17.0797ZM19.8482 6.45391C19.8482 7.26875 19.2054 7.91953 18.4125 7.91953C17.6143 7.91953 16.9768 7.26328 16.9768 6.45391C16.9768 5.64453 17.6196 4.98828 18.4125 4.98828C19.2054 4.98828 19.8482 5.64453 19.8482 6.45391ZM23.925 7.94141C23.8339 5.97813 23.3946 4.23907 21.9857 2.80625C20.5821 1.37344 18.8786 0.925003 16.9554 0.826566C14.9732 0.711722 9.03214 0.711722 7.05 0.826566C5.13214 0.919534 3.42857 1.36797 2.01964 2.80078C0.610715 4.2336 0.176787 5.97266 0.0803581 7.93594C-0.0321419 9.95938 -0.0321419 16.0242 0.0803581 18.0477C0.171429 20.0109 0.610715 21.75 2.01964 23.1828C3.42857 24.6156 5.12678 25.0641 7.05 25.1625C9.03214 25.2773 14.9732 25.2773 16.9554 25.1625C18.8786 25.0695 20.5821 24.6211 21.9857 23.1828C23.3893 21.75 23.8286 20.0109 23.925 18.0477C24.0375 16.0242 24.0375 9.96485 23.925 7.94141ZM21.3643 20.2188C20.9464 21.2906 20.1375 22.1164 19.0821 22.5484C17.5018 23.1883 13.7518 23.0406 12.0054 23.0406C10.2589 23.0406 6.50357 23.1828 4.92857 22.5484C3.87857 22.1219 3.06964 21.2961 2.64643 20.2188C2.01964 18.6055 2.16429 14.7773 2.16429 12.9945C2.16429 11.2117 2.025 7.37813 2.64643 5.77032C3.06429 4.69844 3.87321 3.87266 4.92857 3.44063C6.50893 2.80078 10.2589 2.94844 12.0054 2.94844C13.7518 2.94844 17.5071 2.80625 19.0821 3.44063C20.1321 3.86719 20.9411 4.69297 21.3643 5.77032C21.9911 7.3836 21.8464 11.2117 21.8464 12.9945C21.8464 14.7773 21.9911 18.6109 21.3643 20.2188Z" fill="white"/>
</svg>
